<svg width="600" height="600" viewBox="0 0 600 600" fill="none" xmlns="http://www.w3.org/2000/svg" role="img" aria-label="Default medicine illustration">
  <defs>
    <linearGradient id="bg" x1="120" y1="80" x2="500" y2="540" gradientUnits="userSpaceOnUse">
      <stop stop-color="#E9F7F4"/>
      <stop offset="1" stop-color="#D7ECE6"/>
    </linearGradient>
    <linearGradient id="pill1" x1="180" y1="180" x2="340" y2="340" gradientUnits="userSpaceOnUse">
      <stop stop-color="#4BC3A3"/>
      <stop offset="1" stop-color="#2F8F7A"/>
    </linearGradient>
    <linearGradient id="pill2" x1="270" y1="220" x2="430" y2="380" gradientUnits="userSpaceOnUse">
      <stop stop-color="#FFFFFF"/>
      <stop offset="1" stop-color="#E7F1EE"/>
    </linearGradient>
    <filter id="shadow" x="86" y="96" width="428" height="428" filterUnits="userSpaceOnUse" color-interpolation-filters="sRGB">
      <feFlood flood-opacity="0" result="BackgroundImageFix"/>
      <feColorMatrix in="SourceAlpha" type="matrix" values="0 0 0 0 0 0 0 0 0 0 0 0 0 0 0 0 0 0 127 0" result="hardAlpha"/>
      <feOffset dy="18"/>
      <feGaussianBlur stdDeviation="18"/>
      <feColorMatrix type="matrix" values="0 0 0 0 0.17 0 0 0 0 0.36 0 0 0 0 0.31 0 0 0 0.18 0"/>
      <feBlend mode="normal" in2="BackgroundImageFix" result="effect1_dropShadow"/>
      <feBlend mode="normal" in="SourceGraphic" in2="effect1_dropShadow" result="shape"/>
    </filter>
  </defs>

  <rect width="600" height="600" rx="56" fill="url(#bg)"/>
  <circle cx="140" cy="130" r="74" fill="#FFFFFF" fill-opacity="0.38"/>
  <circle cx="488" cy="112" r="96" fill="#FFFFFF" fill-opacity="0.24"/>
  <circle cx="470" cy="474" r="112" fill="#FFFFFF" fill-opacity="0.2"/>
  <circle cx="122" cy="470" r="88" fill="#FFFFFF" fill-opacity="0.18"/>

  <g filter="url(#shadow)">
    <rect x="126" y="126" width="348" height="348" rx="40" fill="#F7FBFA" fill-opacity="0.92"/>
    <rect x="154" y="154" width="292" height="292" rx="30" fill="#FFFFFF"/>
    <path d="M226 184H374C388.359 184 400 195.641 400 210V390C400 404.359 388.359 416 374 416H226C211.641 416 200 404.359 200 390V210C200 195.641 211.641 184 226 184Z" fill="#EAF6F2"/>
    <path d="M300 184V416" stroke="#D0E8E1" stroke-width="12"/>
    <path d="M200 250H400" stroke="#D0E8E1" stroke-width="10" stroke-linecap="round"/>
    <path d="M200 350H400" stroke="#D0E8E1" stroke-width="10" stroke-linecap="round"/>

    <g transform="translate(0 10)">
      <rect x="156" y="214" width="150" height="72" rx="36" fill="url(#pill1)"/>
      <path d="M231 214V286" stroke="#FFFFFF" stroke-width="8" stroke-linecap="round" opacity="0.9"/>
      <circle cx="184" cy="250" r="8" fill="#FFFFFF" fill-opacity="0.62"/>
    </g>

    <g transform="translate(0 8)">
      <rect x="294" y="268" width="150" height="72" rx="36" fill="url(#pill2)"/>
      <path d="M369 268V340" stroke="#4BC3A3" stroke-width="8" stroke-linecap="round" opacity="0.95"/>
      <circle cx="322" cy="304" r="8" fill="#4BC3A3" fill-opacity="0.35"/>
    </g>

    <g transform="translate(0 4)">
      <rect x="210" y="342" width="180" height="56" rx="28" fill="#DFF1EA"/>
      <path d="M255 342V398" stroke="#4BC3A3" stroke-width="8" stroke-linecap="round"/>
      <path d="M345 342V398" stroke="#9BCDC0" stroke-width="8" stroke-linecap="round"/>
    </g>

    <circle cx="300" cy="300" r="18" fill="#4BC3A3" fill-opacity="0.12"/>
  </g>
</svg>
